<?xml version="1.0" encoding="utf-8"?>
<!-- Generator: Adobe Illustrator 16.0.0, SVG Export Plug-In . SVG Version: 6.00 Build 0)  -->
<!DOCTYPE svg PUBLIC "-//W3C//DTD SVG 1.1//EN" "http://www.w3.org/Graphics/SVG/1.1/DTD/svg11.dtd">
<svg version="1.1" id="Layer_1" xmlns:inkpad="http://taptrix.com/inkpad/svg_extensions"
	 xmlns="http://www.w3.org/2000/svg" xmlns:xlink="http://www.w3.org/1999/xlink" x="0px" y="0px" width="16px" height="178px"
	 viewBox="0 0 16 178" enable-background="new 0 0 16 178" xml:space="preserve">
<g id="Layer" inkpad:layerName="eighth-note">
	<g transform="matrix(1 0 0 1 0 0)">
		
			<image display="none" overflow="visible" enable-background="new    " width="125" height="175" id="Image_3" xlink:href="E8082A48.png" >
		</image>
	</g>
</g>
<g id="Layer_2" inkpad:layerName="Layer 2" opacity="0.796">
	<g transform="matrix(1.02647 0 0 1.02647 -201 -452.328)">
		
			<image display="none" overflow="visible" enable-background="new    " width="1024" height="768" id="Image" xlink:href="E8082A4E.jpeg"  transform="matrix(1.0265 0 0 1.0265 -201.0005 -452.3286)">
		</image>
	</g>
</g>
<g id="Layer_3" inkpad:layerName="Layer 4">
	<path fill="none" stroke="#000000" stroke-width="2.5" stroke-linecap="square" d="M-60.383,175.25H254"/>
	<path fill="none" stroke="#000000" stroke-width="2.5" stroke-linecap="square" d="M-63.383,134.25H251"/>
	<path fill="none" stroke="#000000" stroke-width="2.5" stroke-linecap="square" d="M-63.383,90.25H251"/>
	<path fill="none" stroke="#000000" stroke-width="2.5" stroke-linecap="square" d="M-63.383,46.25H251"/>
	<path fill="none" stroke="#000000" stroke-width="2.5" stroke-linecap="square" d="M-63.383,2.25H251"/>
	<path fill="none" stroke="#3F00FF" stroke-width="2.5" stroke-linecap="square" d="M-60.383,222.25H254"/>
	<path fill="none" stroke="#3F00FF" stroke-width="2.5" stroke-linecap="square" d="M-60.383,222.25H254"/>
</g>
<g id="Layer_4" inkpad:layerName="Layer 6">
	<path display="none" fill="none" stroke="#32FF00" stroke-width="2.5" stroke-linecap="square" d="M-60.383,156H254"/>
	<path display="none" fill="none" stroke="#32FF00" stroke-width="2.5" stroke-linecap="square" d="M-63.383,112H251"/>
	<path display="none" fill="none" stroke="#32FF00" stroke-width="2.5" stroke-linecap="square" d="M-63.383,68H251"/>
	<path display="none" fill="none" stroke="#32FF00" stroke-width="2.5" stroke-linecap="square" d="M-63.383,24H251"/>
	<path display="none" fill="none" stroke="#32FF00" stroke-width="2.5" stroke-linecap="square" d="M-60.383,200H254"/>
	<path display="none" fill="none" stroke="#32FF00" stroke-width="2.5" stroke-linecap="square" d="M-63.383-20H251"/>
</g>
<g id="Layer_5" inkpad:layerName="Layer 5">
	<path display="none" fill="none" stroke="#0086FF" stroke-width="2.5" stroke-linecap="square" d="M97.617,156h21.999v22H97.617
		V156z"/>
	<path display="none" fill="none" stroke="#0086FF" stroke-width="2.5" stroke-linecap="square" d="M97.617,134h21.999v22H97.617
		V134z"/>
</g>
<g id="Layer_6" inkpad:layerName="Layer 3">
	<path display="none" d="M74.617,2c0,8.712-1.479,22.805,3,34c8,20,27.845,33.863,29.999,60c1.077,13.068-3,29-7,36
		c-2.48,4.341-7.614,2.355-4.999-3c3.32-6.807,7.076-20.384,5.999-32c-1.068-11.527-19.999-35-26.999-43c-1.799-2.055-3.189-6.2-4-9
		l-1-43H74.617z"/>
	<path display="none" d="M20.313,169.684c-5.292-9.694,2.207-23.99,16.75-31.928c14.544-7.939,30.623-6.514,35.915,3.182
		s-2.207,23.989-16.75,31.929C41.686,180.805,25.605,179.38,20.313,169.684z"/>
	<path display="none" d="M68.617,2h6v147h-6V2z"/>
</g>
<g id="Layer_7" inkpad:layerName="Layer 1" opacity="0.764">
	<g transform="matrix(1.91046 0 0 1.91046 -62 -38.4798)">
		
			<image display="none" overflow="visible" enable-background="new    " width="199" height="151" id="Image_2" xlink:href="E8082A4E.png"  transform="matrix(1.9105 0 0 1.9105 -62.0005 -38.4795)">
		</image>
	</g>
</g>
</svg>
